<svg width="127" height="45" viewBox="0 0 127 45" fill="none" xmlns="http://www.w3.org/2000/svg">
<path d="M4.64 34C3.936 34 3.392 33.8187 3.008 33.456C2.64533 33.072 2.464 32.528 2.464 31.824V13.616C2.464 12.912 2.64533 12.3787 3.008 12.016C3.392 11.632 3.936 11.44 4.64 11.44H10.848C14.624 11.44 17.536 12.4107 19.584 14.352C21.6533 16.2933 22.688 19.0773 22.688 22.704C22.688 24.5173 22.4213 26.128 21.888 27.536C21.376 28.9227 20.608 30.096 19.584 31.056C18.5813 32.016 17.344 32.752 15.872 33.264C14.4213 33.7547 12.7467 34 10.848 34H4.64ZM6.56 30.608H10.592C11.9147 30.608 13.056 30.448 14.016 30.128C14.9973 29.7867 15.808 29.296 16.448 28.656C17.1093 27.9947 17.6 27.1733 17.92 26.192C18.24 25.1893 18.4 24.0267 18.4 22.704C18.4 20.0587 17.7493 18.0853 16.448 16.784C15.1467 15.4827 13.1947 14.832 10.592 14.832H6.56V30.608Z" fill="#1437FF"/>
<path d="M28.439 40.016C27.799 40.016 27.3083 39.8453 26.967 39.504C26.6257 39.1627 26.455 38.6613 26.455 38V20.112C26.455 19.4507 26.6257 18.9493 26.967 18.608C27.3083 18.2667 27.7883 18.096 28.407 18.096C29.047 18.096 29.5377 18.2667 29.879 18.608C30.2203 18.9493 30.391 19.4507 30.391 20.112V22.608L30.039 21.648C30.359 20.56 31.0097 19.6853 31.991 19.024C32.9937 18.3627 34.1563 18.032 35.479 18.032C36.8443 18.032 38.039 18.3627 39.063 19.024C40.1083 19.6853 40.919 20.624 41.495 21.84C42.071 23.0347 42.359 24.4747 42.359 26.16C42.359 27.824 42.071 29.2747 41.495 30.512C40.919 31.728 40.119 32.6667 39.095 33.328C38.071 33.9893 36.8657 34.32 35.479 34.32C34.1777 34.32 33.0363 34 32.055 33.36C31.0737 32.6987 30.4123 31.8453 30.071 30.8H30.455V38C30.455 38.6613 30.2737 39.1627 29.911 39.504C29.5697 39.8453 29.079 40.016 28.439 40.016ZM34.359 31.28C35.1483 31.28 35.8417 31.088 36.439 30.704C37.0363 30.32 37.495 29.7547 37.815 29.008C38.1563 28.24 38.327 27.2907 38.327 26.16C38.327 24.4533 37.9643 23.184 37.239 22.352C36.5137 21.4987 35.5537 21.072 34.359 21.072C33.5697 21.072 32.8763 21.264 32.279 21.648C31.6817 22.0107 31.2123 22.576 30.871 23.344C30.551 24.0907 30.391 25.0293 30.391 26.16C30.391 27.8453 30.7537 29.1253 31.479 30C32.2043 30.8533 33.1643 31.28 34.359 31.28ZM50.9865 34.32C49.2158 34.32 47.8825 33.8187 46.9865 32.816C46.0905 31.792 45.6425 30.2987 45.6425 28.336V13.2C45.6425 12.5387 45.8132 12.0373 46.1545 11.696C46.4958 11.3547 46.9865 11.184 47.6265 11.184C48.2665 11.184 48.7572 11.3547 49.0985 11.696C49.4612 12.0373 49.6425 12.5387 49.6425 13.2V28.144C49.6425 29.1253 49.8452 29.8507 50.2505 30.32C50.6772 30.7893 51.2745 31.024 52.0425 31.024C52.2132 31.024 52.3732 31.024 52.5225 31.024C52.6718 31.0027 52.8212 30.9813 52.9705 30.96C53.2692 30.9173 53.4718 31.0027 53.5785 31.216C53.6852 31.408 53.7385 31.8133 53.7385 32.432C53.7385 32.9653 53.6318 33.3813 53.4185 33.68C53.2052 33.9787 52.8532 34.16 52.3625 34.224C52.1492 34.2453 51.9252 34.2667 51.6905 34.288C51.4558 34.3093 51.2212 34.32 50.9865 34.32ZM61.0133 34.32C59.8826 34.32 58.8693 34.1067 57.9733 33.68C57.0986 33.232 56.4053 32.6347 55.8932 31.888C55.4026 31.1413 55.1573 30.2987 55.1573 29.36C55.1573 28.208 55.4559 27.3013 56.0533 26.64C56.6506 25.9573 57.6213 25.4667 58.9653 25.168C60.3093 24.8693 62.1119 24.72 64.3733 24.72H65.9733V27.024H64.4053C63.0826 27.024 62.0266 27.088 61.2373 27.216C60.4479 27.344 59.8826 27.568 59.5413 27.888C59.2213 28.1867 59.0613 28.6133 59.0613 29.168C59.0613 29.872 59.3066 30.448 59.7973 30.896C60.2879 31.344 60.9706 31.568 61.8453 31.568C62.5493 31.568 63.1679 31.408 63.7013 31.088C64.2559 30.7467 64.6933 30.288 65.0133 29.712C65.3333 29.136 65.4933 28.4747 65.4933 27.728V24.048C65.4933 22.9813 65.2586 22.2133 64.7893 21.744C64.3199 21.2747 63.5306 21.04 62.4213 21.04C61.8026 21.04 61.1306 21.1147 60.4053 21.264C59.7013 21.4133 58.9546 21.6693 58.1653 22.032C57.7599 22.224 57.3973 22.2773 57.0773 22.192C56.7786 22.1067 56.5439 21.936 56.3733 21.68C56.2026 21.4027 56.1173 21.104 56.1173 20.784C56.1173 20.464 56.2026 20.1547 56.3733 19.856C56.5439 19.536 56.8319 19.3013 57.2373 19.152C58.2186 18.7467 59.1573 18.4587 60.0533 18.288C60.9706 18.1173 61.8026 18.032 62.5493 18.032C64.0853 18.032 65.3439 18.2667 66.3253 18.736C67.3279 19.2053 68.0746 19.92 68.5653 20.88C69.0559 21.8187 69.3013 23.0347 69.3013 24.528V32.208C69.3013 32.8693 69.1413 33.3813 68.8213 33.744C68.5013 34.0853 68.0426 34.256 67.4453 34.256C66.8479 34.256 66.3786 34.0853 66.0373 33.744C65.7173 33.3813 65.5573 32.8693 65.5573 32.208V30.672H65.8133C65.6639 31.4187 65.3653 32.0693 64.9173 32.624C64.4906 33.1573 63.9466 33.5733 63.2853 33.872C62.6239 34.1707 61.8666 34.32 61.0133 34.32ZM75.3453 34.256C74.7053 34.256 74.2146 34.0853 73.8733 33.744C73.5319 33.3813 73.3613 32.8693 73.3613 32.208V20.112C73.3613 19.4507 73.5319 18.9493 73.8733 18.608C74.2146 18.2667 74.6946 18.096 75.3133 18.096C75.9319 18.096 76.4119 18.2667 76.7533 18.608C77.0946 18.9493 77.2653 19.4507 77.2653 20.112V22.288L76.9133 21.488C77.3826 20.3573 78.1079 19.504 79.0893 18.928C80.0919 18.3307 81.2226 18.032 82.4813 18.032C83.7399 18.032 84.7746 18.2667 85.5853 18.736C86.3959 19.2053 87.0039 19.92 87.4093 20.88C87.8146 21.8187 88.0173 23.0133 88.0173 24.464V32.208C88.0173 32.8693 87.8466 33.3813 87.5053 33.744C87.1639 34.0853 86.6733 34.256 86.0333 34.256C85.3933 34.256 84.8919 34.0853 84.5293 33.744C84.1879 33.3813 84.0173 32.8693 84.0173 32.208V24.656C84.0173 23.44 83.7826 22.5547 83.3133 22C82.8653 21.4453 82.1613 21.168 81.2013 21.168C80.0279 21.168 79.0893 21.5413 78.3853 22.288C77.7026 23.0133 77.3613 23.984 77.3613 25.2V32.208C77.3613 33.5733 76.6893 34.256 75.3453 34.256ZM94.064 34.256C93.424 34.256 92.9333 34.0853 92.592 33.744C92.2507 33.3813 92.08 32.8693 92.08 32.208V20.112C92.08 19.4507 92.2507 18.9493 92.592 18.608C92.9333 18.2667 93.4133 18.096 94.032 18.096C94.6507 18.096 95.1307 18.2667 95.472 18.608C95.8133 18.9493 95.984 19.4507 95.984 20.112V22.288L95.632 21.488C96.1013 20.3573 96.8267 19.504 97.808 18.928C98.8107 18.3307 99.9413 18.032 101.2 18.032C102.459 18.032 103.493 18.2667 104.304 18.736C105.115 19.2053 105.723 19.92 106.128 20.88C106.533 21.8187 106.736 23.0133 106.736 24.464V32.208C106.736 32.8693 106.565 33.3813 106.224 33.744C105.883 34.0853 105.392 34.256 104.752 34.256C104.112 34.256 103.611 34.0853 103.248 33.744C102.907 33.3813 102.736 32.8693 102.736 32.208V24.656C102.736 23.44 102.501 22.5547 102.032 22C101.584 21.4453 100.88 21.168 99.92 21.168C98.7467 21.168 97.808 21.5413 97.104 22.288C96.4213 23.0133 96.08 23.984 96.08 25.2V32.208C96.08 33.5733 95.408 34.256 94.064 34.256ZM115.951 34.32C114.82 34.32 113.807 34.1067 112.911 33.68C112.036 33.232 111.343 32.6347 110.831 31.888C110.34 31.1413 110.095 30.2987 110.095 29.36C110.095 28.208 110.393 27.3013 110.991 26.64C111.588 25.9573 112.559 25.4667 113.903 25.168C115.247 24.8693 117.049 24.72 119.311 24.72H120.911V27.024H119.343C118.02 27.024 116.964 27.088 116.175 27.216C115.385 27.344 114.82 27.568 114.479 27.888C114.159 28.1867 113.999 28.6133 113.999 29.168C113.999 29.872 114.244 30.448 114.735 30.896C115.225 31.344 115.908 31.568 116.783 31.568C117.487 31.568 118.105 31.408 118.639 31.088C119.193 30.7467 119.631 30.288 119.951 29.712C120.271 29.136 120.431 28.4747 120.431 27.728V24.048C120.431 22.9813 120.196 22.2133 119.727 21.744C119.257 21.2747 118.468 21.04 117.359 21.04C116.74 21.04 116.068 21.1147 115.343 21.264C114.639 21.4133 113.892 21.6693 113.103 22.032C112.697 22.224 112.335 22.2773 112.015 22.192C111.716 22.1067 111.481 21.936 111.311 21.68C111.14 21.4027 111.055 21.104 111.055 20.784C111.055 20.464 111.14 20.1547 111.311 19.856C111.481 19.536 111.769 19.3013 112.175 19.152C113.156 18.7467 114.095 18.4587 114.991 18.288C115.908 18.1173 116.74 18.032 117.487 18.032C119.023 18.032 120.281 18.2667 121.263 18.736C122.265 19.2053 123.012 19.92 123.503 20.88C123.993 21.8187 124.239 23.0347 124.239 24.528V32.208C124.239 32.8693 124.079 33.3813 123.759 33.744C123.439 34.0853 122.98 34.256 122.383 34.256C121.785 34.256 121.316 34.0853 120.975 33.744C120.655 33.3813 120.495 32.8693 120.495 32.208V30.672H120.751C120.601 31.4187 120.303 32.0693 119.855 32.624C119.428 33.1573 118.884 33.5733 118.223 33.872C117.561 34.1707 116.804 34.32 115.951 34.32Z" fill="#2C3E50"/>
<circle cx="10" cy="3" r="3" fill="#FF5F05"/>
</svg>
